<?xml version="1.0" encoding="UTF-8"?>
<svg width="613px" height="192px" viewBox="0 0 613 192" version="1.1" xmlns="http://www.w3.org/2000/svg" xmlns:xlink="http://www.w3.org/1999/xlink">
    <!-- Generator: Sketch 47.1 (45422) - http://www.bohemiancoding.com/sketch -->
    <title>Group</title>
    <desc>Created with Sketch.</desc>
    <defs>
        <linearGradient x1="8.48003328%" y1="0%" x2="8.48003328%" y2="81.735322%" id="linearGradient-1">
            <stop stop-color="#ED00BB" offset="0%"></stop>
            <stop stop-color="#A100F6" offset="100%"></stop>
        </linearGradient>
        <linearGradient x1="50%" y1="0%" x2="50%" y2="100%" id="linearGradient-2">
            <stop stop-color="#FF1C68" offset="0%"></stop>
            <stop stop-color="#DB0068" offset="100%"></stop>
        </linearGradient>
    </defs>
    <g id="Page-1" stroke="none" stroke-width="1" fill="none" fill-rule="evenodd">
        <g id="Group" transform="translate(0.000000, -1.000000)">
            <path d="M17.1644447,33.14 L78.8044447,33.14 C110.774445,33.14 127.564445,54.3 127.564445,80.75 C127.564445,110.88 105.714445,138.25 67.7644447,138.25 L44.0744447,138.25 L38.7844447,190 L0.834444656,190 L17.1644447,33.14 Z M73.7444447,68.79 L51.4344447,68.79 L47.5244447,104.44 L69.1444447,104.44 C82.0244447,104.44 89.6144447,95.93 89.6144447,84.66 C89.6144447,76.61 84.5544447,68.79 73.7444447,68.79 Z M214.172222,30.84 C256.722222,30.84 288.922222,62.12 288.922222,103.06 C288.922222,152.28 249.132222,192.3 198.762222,192.3 C156.672222,192.3 124.472222,160.79 124.472222,120.08 C124.472222,70.63 164.492222,30.84 214.172222,30.84 Z M211.182222,67.18 C185.422222,67.18 162.882222,89.26 162.882222,116.4 C162.882222,138.25 179.442222,155.96 201.752222,155.96 C227.052222,155.96 250.512222,133.88 250.512222,106.74 C250.512222,84.66 233.492222,67.18 211.182222,67.18 Z M398.53,40.5 L394.39,77.76 C394.39,77.76 375.07,66.49 350.23,66.49 C341.26,66.49 331.6,69.94 331.6,77.76 C331.6,95.24 400.37,91.33 400.37,140.09 C400.37,169.3 378.75,192.3 334.13,192.3 C304,192.3 282.38,180.11 282.38,180.11 L286.52,141.7 C286.52,141.7 310.21,156.42 335.05,156.42 C347.7,156.42 359.89,152.97 359.89,143.08 C359.89,123.53 292.96,128.36 292.96,80.29 C292.96,47.86 322.86,30.84 353.68,30.84 C381.05,30.84 398.53,40.5 398.53,40.5 Z M519.74,154.35 L442.69,154.35 L445.45,128.36 L509.85,128.36 L513.53,93.4 L449.13,93.4 L451.66,68.79 L527.33,68.79 L531.01,33.14 L417.39,33.14 L401.06,190 L516.06,190 L519.74,154.35 Z" id="POSE" fill="url(#linearGradient-1)"></path>
            <g id="Favicon-logo" transform="translate(549.000000, 0.000000)" fill="url(#linearGradient-2)">
                <g id="Group">
                    <g id="Icon">
                        <path d="M31.5522638,1.74258333 C14.1242078,1.75576398 0,16.1352237 0,33.8712871 C0,51.6154853 14.137167,66 31.5762463,66 C48.1501129,66 61.7415781,53.0074084 63.0494203,36.4861833 C59.6742446,38.6052793 55.4826174,39.8613861 50.5648094,39.8613861 L41.744868,39.8613861 L39.7753666,59.4653465 L25.6463343,59.4653465 L31.552264,1.74258224 Z" id="Combined-Shape"></path>
                        <path d="M52.7912023,13.5485149 C56.8158358,13.5485149 58.6997067,16.5108911 58.6997067,19.560396 C58.6997067,23.829703 55.8739003,27.0534653 51.0785924,27.0534653 L43.0293255,27.0534653 L44.485044,13.5485149 L52.7912023,13.5485149 Z" id="P"></path>
                    </g>
                </g>
            </g>
        </g>
    </g>
</svg>